<?xml version="1.0" encoding="UTF-8"?>
<svg id="Layer_2" data-name="Layer 2" xmlns="http://www.w3.org/2000/svg" viewBox="0 0 227 246.09">
  <g id="Layer_1-2" data-name="Layer 1">
    <path d="M0,246.09c2.37-18.07-.28-53.79,11-68.5,6.92-9.02,42.67-24.06,54.48-28.52,4.98-1.88,19.43-4.57,21.84-8.25,6.53-9.99-4.09-19.51-7.51-28.04-1.31-3.27-1.71-8.09-3.07-10.93-3.38-7.08-7.56-9.98-9.48-19.52-.96-4.75-3.6-16.57,2.76-16.76-7.27-19.15-2.63-43.21,14.07-55.89C91.53,4.02,102.4,1.1,111.6.19c33.35-3.27,58.44,35.43,45.38,65.37,6.36.19,3.72,12.01,2.76,16.76-1.93,9.59-6.37,12.6-9.48,19.52-1.29,2.87-1.65,7.36-3.08,10.92-3.29,8.22-13.46,17.74-8.16,27.54,2.01,3.71,18.99,7.44,23.93,9.32,11.6,4.42,46.2,19.05,53.04,27.96,11.38,14.83,8.6,50.27,11,68.5H0Z"/>
  </g>
</svg>