<svg width="47" height="54" viewBox="0 0 47 54" fill="none" xmlns="http://www.w3.org/2000/svg">
<g clip-path="url(#clip0_1264_1933)">
<path d="M14.8337 9.9165C10.0837 9.9165 6.91699 14.6665 6.91699 19.4165C6.91699 22.7573 8.50033 27.3332 10.0837 28.9165C11.667 30.4998 13.2503 41.5832 16.417 41.5832C23.6053 41.5832 19.5837 30.4998 22.7503 30.4998C25.917 30.4998 21.8953 41.5832 29.0837 41.5832C32.2503 41.5832 33.8337 30.4998 35.417 28.9165C37.0003 27.3332 38.5837 22.7573 38.5837 19.4165C38.5837 14.6665 35.417 9.9165 30.667 9.9165C25.917 9.9165 25.917 11.4998 22.7503 11.4998C19.5837 11.4998 19.5837 9.9165 14.8337 9.9165ZM14.8337 13.0832C18.0003 13.0832 19.5837 14.6665 22.7503 14.6665C25.917 14.6665 27.5003 13.0832 30.667 13.0832C33.3112 13.0832 35.417 16.2498 35.417 19.4165C35.417 22.1873 34.0553 25.924 32.5512 27.4282C31.1895 28.7898 29.1787 38.3215 28.292 38.3215C27.9595 38.3215 27.5003 36.6432 27.5003 34.6007C27.5003 31.3707 26.5978 27.3332 22.7503 27.3332C18.9028 27.3332 18.0003 31.3707 18.0003 34.6007C18.0003 36.6432 17.5412 38.3215 17.2087 38.3215C16.322 38.3215 14.3112 28.7898 12.9495 27.4282C11.4453 25.924 10.0837 22.1873 10.0837 19.4165C10.0837 16.2498 12.1895 13.0832 14.8337 13.0832Z" fill="#475C6F"/>
<path d="M38.487 7.26824C38.3902 7.2912 38.3004 7.33939 38.2228 7.41005C38.1451 7.4807 38.0811 7.57245 38.0343 7.68005C37.9876 7.78764 37.959 7.90898 37.9503 8.03714C37.9416 8.16529 37.9529 8.29775 37.9836 8.42694C38.0143 8.55614 38.0637 8.67956 38.129 8.79013C38.1944 8.90071 38.2744 8.99629 38.3645 9.0714C38.4546 9.14652 38.553 9.19972 38.6542 9.22794C38.7553 9.25617 38.8572 9.25888 38.9539 9.23591C39.1197 9.1847 39.3025 9.21838 39.4667 9.33038C39.5925 9.42107 39.7631 9.62171 39.9043 10.0787C39.9423 10.2072 39.9988 10.3279 40.0706 10.4338C40.1424 10.5397 40.2281 10.6286 40.3225 10.6955C40.417 10.7624 40.5185 10.8059 40.621 10.8234C40.7235 10.8409 40.8251 10.8321 40.9197 10.7976C41.0143 10.763 41.1001 10.7033 41.1722 10.622C41.2442 10.5406 41.301 10.4393 41.3393 10.3239C41.3776 10.2085 41.3965 10.0812 41.3951 9.94962C41.3937 9.818 41.3719 9.68461 41.331 9.55723C41.0642 8.69562 40.6414 8.02897 40.096 7.62634C39.5857 7.25849 39.0137 7.13076 38.487 7.26824Z" fill="#475C6F"/>
</g>
<path d="M0.75005 8.08501V25.6811C0.751058 31.2427 2.43443 36.6735 5.57839 41.258C8.72235 45.8426 13.1794 49.3657 18.3623 51.3634L20.7646 52.2878C22.3644 52.9041 24.1356 52.9041 25.7354 52.2878L28.1377 51.3634C33.3206 49.3657 37.7776 45.8426 40.9216 41.258C44.0656 36.6735 45.7489 31.2427 45.7499 25.6811V8.08501C45.7535 7.42305 45.5665 6.77409 45.2112 6.21585C44.8559 5.6576 44.3475 5.21374 43.7469 4.93741C37.285 2.11286 30.3003 0.686663 23.25 0.752158C16.1997 0.686663 9.21502 2.11286 2.75312 4.93741C2.15245 5.21374 1.64405 5.6576 1.28879 6.21585C0.933536 6.77409 0.746489 7.42305 0.75005 8.08501Z" stroke="#475C6F" stroke-width="1.5" stroke-linecap="round" stroke-linejoin="round"/>
<defs>
<clipPath id="clip0_1264_1933">
<rect width="38" height="38" fill="white" transform="translate(3.75 6.75)"/>
</clipPath>
</defs>
</svg>
