<svg width="48" height="41" viewBox="0 0 48 41" fill="none" xmlns="http://www.w3.org/2000/svg">
<path d="M11.0837 6.16663C6.33366 6.16663 3.16699 10.9166 3.16699 15.6666C3.16699 19.0075 4.75033 23.5833 6.33366 25.1666C7.91699 26.75 9.50033 37.8333 12.667 37.8333C19.8553 37.8333 15.8337 26.75 19.0003 26.75C22.167 26.75 18.1453 37.8333 25.3337 37.8333C28.5003 37.8333 30.0837 26.75 31.667 25.1666C33.2503 23.5833 34.8337 19.0075 34.8337 15.6666C34.8337 10.9166 31.667 6.16663 26.917 6.16663C22.167 6.16663 22.167 7.74996 19.0003 7.74996C15.8337 7.74996 15.8337 6.16663 11.0837 6.16663ZM11.0837 9.33329C14.2503 9.33329 15.8337 10.9166 19.0003 10.9166C22.167 10.9166 23.7503 9.33329 26.917 9.33329C29.5612 9.33329 31.667 12.5 31.667 15.6666C31.667 18.4375 30.3053 22.1741 28.8012 23.6783C27.4395 25.04 25.4287 34.5716 24.542 34.5716C24.2095 34.5716 23.7503 32.8933 23.7503 30.8508C23.7503 27.6208 22.8478 23.5833 19.0003 23.5833C15.1528 23.5833 14.2503 27.6208 14.2503 30.8508C14.2503 32.8933 13.7912 34.5716 13.4587 34.5716C12.572 34.5716 10.5612 25.04 9.19949 23.6783C7.69533 22.1741 6.33366 18.4375 6.33366 15.6666C6.33366 12.5 8.43949 9.33329 11.0837 9.33329Z" fill="#475C6F"/>
<path d="M39.8581 12.2383C39.6368 11.9135 39.3659 11.5286 39.5528 11.1816C40.0271 10.2956 39.4464 9.76342 39.0421 9.16015C38.5545 8.42809 38.1207 7.64875 37.5427 6.99106C36.6312 5.95057 36.2805 4.86294 36.9607 3.54452C37.2103 3.06315 36.9938 2.86509 36.5395 2.73523C35.8291 2.53029 35.1283 2.28461 34.4271 2.04784C34.2025 1.97049 33.9469 1.8801 34.0572 1.55977C34.1628 1.25536 34.4142 1.27178 34.6543 1.34923C35.3048 1.55666 35.9471 1.78454 36.598 1.98948C38.3711 2.54759 38.1085 2.39168 37.5834 3.97983C37.2876 4.87228 37.3755 5.52891 37.9392 6.24326C38.6638 7.1615 39.28 8.16642 39.9393 9.13766C40.2275 9.56407 40.4406 10.0096 41.1538 9.90139C41.5941 9.83603 41.9618 10.1913 42.2197 10.5829C42.8035 11.4627 43.4053 12.3302 43.9997 13.2028L44.0027 13.2007C44.5802 14.0486 45.1737 14.8876 45.7316 15.7488C46.1992 16.471 46.0145 17.3518 45.3451 17.7864C44.6592 18.2323 43.8276 18.0565 43.3255 17.3258C42.163 15.6353 41.0176 13.9309 39.8581 12.2383ZM44.9395 17.1584C45.4137 16.8418 45.298 16.4131 45.0137 15.9989C43.8864 14.3633 42.7717 12.717 41.6535 11.0752C41.3757 10.6673 41.0055 10.4054 40.5387 10.749C40.125 11.0542 40.2197 11.4781 40.4782 11.8543L42.2057 14.3906C42.7494 15.1889 43.2952 15.9837 43.8334 16.7837C44.1052 17.1892 44.4647 17.4775 44.9395 17.1584Z" fill="#475C6F"/>
</svg>
