<svg width="38" height="38" viewBox="0 0 38 38" fill="none" xmlns="http://www.w3.org/2000/svg">
<path d="M11.0827 3.1665C6.33268 3.1665 3.16602 7.9165 3.16602 12.6665C3.16602 16.0073 4.74935 20.5832 6.33268 22.1665C7.91602 23.7498 9.49935 34.8332 12.666 34.8332C19.8543 34.8332 15.8327 23.7498 18.9993 23.7498C22.166 23.7498 18.1443 34.8332 25.3327 34.8332C28.4993 34.8332 30.0827 23.7498 31.666 22.1665C33.2493 20.5832 34.8327 16.0073 34.8327 12.6665C34.8327 7.9165 31.666 3.1665 26.916 3.1665C22.166 3.1665 22.166 4.74984 18.9993 4.74984C15.8327 4.74984 15.8327 3.1665 11.0827 3.1665ZM11.0827 6.33317C14.2493 6.33317 15.8327 7.9165 18.9993 7.9165C22.166 7.9165 23.7493 6.33317 26.916 6.33317C29.5602 6.33317 31.666 9.49984 31.666 12.6665C31.666 15.4373 30.3043 19.174 28.8002 20.6782C27.4385 22.0398 25.4277 31.5715 24.541 31.5715C24.2085 31.5715 23.7493 29.8932 23.7493 27.8507C23.7493 24.6207 22.8468 20.5832 18.9993 20.5832C15.1518 20.5832 14.2493 24.6207 14.2493 27.8507C14.2493 29.8932 13.7902 31.5715 13.4577 31.5715C12.571 31.5715 10.5602 22.0398 9.19852 20.6782C7.69435 19.174 6.33268 15.4373 6.33268 12.6665C6.33268 9.49984 8.43852 6.33317 11.0827 6.33317Z" fill="#475C6F"/>
<path d="M35.2717 5.61794C35.0344 5.49566 34.8756 5.30881 34.7952 5.0574C34.7148 4.806 34.7357 4.56137 34.8578 4.32352C34.9799 4.08567 35.1669 3.92693 35.4189 3.8473C35.6708 3.76767 35.9153 3.78843 36.1522 3.90956C36.3891 4.0307 36.548 4.21784 36.629 4.47097C36.7099 4.7241 36.689 4.96844 36.5661 5.20399C36.4433 5.43954 36.2564 5.59857 36.0053 5.68107C35.7543 5.76358 35.5097 5.74253 35.2717 5.61794ZM32.7179 3.58103C32.3193 3.37558 32.0533 3.06432 31.9199 2.64722C31.7865 2.23013 31.8225 1.82227 32.028 1.42365C32.2334 1.02503 32.5447 0.759025 32.9618 0.62564C33.3789 0.492255 33.7867 0.528284 34.1854 0.733728C34.584 0.939172 34.85 1.25044 34.9834 1.66753C35.1168 2.08463 35.0807 2.49248 34.8753 2.89111C34.6698 3.28973 34.3586 3.55573 33.9415 3.68912C33.5244 3.8225 33.1165 3.78647 32.7179 3.58103Z" fill="#475C6F"/>
</svg>
