<svg width="20" height="14" viewBox="0 0 20 14" fill="none" xmlns="http://www.w3.org/2000/svg">
<path d="M13.7367 6.64667L18.8625 2.19333V11.0492L13.7367 6.64667ZM7.13167 7.40083L8.93167 8.96333C9.21417 9.20333 9.5825 9.34833 9.985 9.34833H9.99917H10.01C10.4133 9.34833 10.7817 9.2025 11.0675 8.96083L11.065 8.9625L12.865 7.4L18.3367 12.0992H1.6625L7.13167 7.40083ZM1.655 1.1375H18.3467L10.3292 8.10083C10.2394 8.17285 10.1276 8.2117 10.0125 8.21083H10.0008H9.99C9.87454 8.21165 9.76236 8.17249 9.6725 8.1L9.67333 8.10083L1.655 1.1375ZM1.1375 2.1925L6.2625 6.64583L1.1375 11.0458V2.1925ZM19.1375 0.158333C18.9375 0.0583334 18.7025 0 18.4533 0H1.54917C1.30774 0.000955683 1.06973 0.0571093 0.853333 0.164167L0.8625 0.16C0.604055 0.287902 0.386414 0.485363 0.234045 0.730183C0.0816773 0.975002 0.000624467 1.25747 0 1.54583L0 11.6892C0.00044117 12.0997 0.16371 12.4932 0.453984 12.7835C0.744257 13.0738 1.13783 13.2371 1.54833 13.2375H18.4508C18.8613 13.2371 19.2549 13.0738 19.5452 12.7835C19.8355 12.4932 19.9987 12.0997 19.9992 11.6892V1.54583C19.9992 0.94 19.65 0.415 19.1417 0.1625L19.1325 0.158333H19.1375Z" fill="#007573"/>
</svg>
