<svg width="18" height="13" viewBox="0 0 18 13" fill="none" xmlns="http://www.w3.org/2000/svg">
<path d="M0 2.0295V4H2.814L0 2.0295ZM2.332 13H6.5V10.0815L2.332 13ZM11.5 10.082V13H15.6675L11.5 10.082ZM0 9V10.9705L2.815 9H0ZM15.6685 0H11.5V2.9185L15.6685 0ZM18 10.971V9H15.1845L18 10.971ZM18 4V2.0295L15.1855 4H18ZM6.5 0H2.332L6.5 2.9185V0Z" fill="#00247D"/>
<path d="M12.5696 9.00012L17.4256 12.4006C17.6624 12.156 17.8327 11.855 17.9206 11.5261L14.3131 9.00012H12.5696ZM6.49963 9.00012H5.42913L0.573625 12.4001C0.834125 12.6651 1.16812 12.8546 1.54262 12.9426L6.49963 9.47162V9.00012ZM11.4996 4.00012H12.5701L17.4256 0.600117C17.1604 0.331518 16.8247 0.143439 16.4571 0.0576172L11.4996 3.52862V4.00012ZM5.42913 4.00012L0.573625 0.600117C0.336709 0.844685 0.166156 1.14569 0.078125 1.47462L3.68563 4.00012H5.42913Z" fill="#CF1B2B"/>
<path d="M18 8H10.5V13H11.5V10.082L15.6675 13H16C16.2656 12.9998 16.5285 12.9466 16.7733 12.8437C17.0181 12.7408 17.24 12.5901 17.426 12.4005L12.57 9H14.3135L17.921 11.526C17.9675 11.3575 18 11.183 18 11V10.971L15.1845 9H18V8ZM0 8V9H2.815L0 10.9705V11C0 11.5455 0.2195 12.039 0.574 12.4L5.4295 9H6.5V9.4715L1.543 12.942C1.69 12.977 1.842 13 2 13H2.332L6.5 10.0815V13H7.5V8H0ZM18 2C18.0005 1.47596 17.7942 0.972885 17.426 0.6L12.5705 4H11.5V3.5285L16.4575 0.0574999C16.3077 0.0207591 16.1542 0.00146437 16 0H15.6685L11.5 2.9185V0H10.5V5H18V4H15.1855L18 2.0295V2ZM6.5 0V2.9185L2.332 0H2C1.73437 0.000303738 1.47147 0.0535168 1.22664 0.156533C0.9818 0.25955 0.759938 0.410305 0.574 0.6L5.4295 4H3.686L0.0785 1.4745C0.0290784 1.6454 0.00267879 1.82212 0 2L0 2.0295L2.814 4H0V5H7.5V0H6.5Z" fill="#EEEEEE"/>
<path d="M10.5 5V0H7.5V5H0V8H7.5V13H10.5V8H18V5H10.5Z" fill="#CF1B2B"/>
</svg>
