<?xml version="1.0" encoding="UTF-8"?>
<svg id="Layer_2" data-name="Layer 2" xmlns="http://www.w3.org/2000/svg" viewBox="0 0 295.01 301.54">
  <defs>
    <style>
      .cls-1 {
        fill: #037573;
      }
    </style>
  </defs>
  <g id="Layer_1-2" data-name="Layer 1">
    <g>
      <path class="cls-1" d="M152.28,125.78l-25.9-15.6c-38.78-20.74-64.45-4.73-56.96,39.68,8.79,52.14,49.96,97.29,91.07,127.73,46.79,34.64,72.21-13.74,87.65-51.89,19.93-49.26,42.91-129.84,23.99-181.13-12.83-34.77-40.51-43.02-73.62-28.27-11.27,5.02-21.37,12.12-31.78,18.61-.41.25-1.04,1.2-1.49.43C188.49,15.81,219.5-5.45,251.62,1.27c27.94,5.84,40.43,30.05,42.7,56.63,3.65,42.81-7.62,90.06-20.5,130.63-11.87,37.4-34.55,101.1-77.56,111.49-25.9,6.26-41.34-7.75-58.85-23.81-35.86-32.87-73.14-69.14-82.38-119.15-4.08-22.06-1.3-51.48,21.94-61.73,30.68-13.53,54.4,12.19,75.32,30.45Z"/>
      <path class="cls-1" d="M209.87,48.06c-12.43,9.68-28.21,13.93-43.93,12.97-39.8-2.41-69.34-37.92-107.14-44.49C30.04,11.54,19.06,37.59,15.18,61.39c-7.16,43.94,6.76,100.27,21.45,141.89,13.33,37.79,42.32,104.02,93.58,81.32-3.49,3.7-7.63,6.84-12.16,9.19-55.53,28.84-85.87-54.83-97.49-94.12-6.66-22.53-12.46-47.75-16.41-70.92C-4.4,78.55-6.33-.58,65.66,4.39c40.66,2.81,66.22,44.83,106.59,49.84,13.09,1.62,25.55-1.4,37.61-6.17Z"/>
      <path class="cls-1" d="M173.88,243.33c22.11-21.87,41.37-51.45,47.37-82.42,6.81-35.21-4.52-67.91-46.77-56.36l-15.95,6.13c10.93-8.49,24.04-15.09,37.81-17.38,43.54-7.22,45.5,26.41,39.22,59.37-5.56,29.13-19.98,55.75-41.99,75.57l-19.68,15.1Z"/>
    </g>
  </g>
</svg>