<svg width="19" height="19" viewBox="0 0 19 19" fill="none" xmlns="http://www.w3.org/2000/svg">
<path d="M5.27273 0H12.9091C15.8182 0 18.1818 2.36364 18.1818 5.27273V12.9091C18.1818 14.3075 17.6263 15.6486 16.6375 16.6375C15.6486 17.6263 14.3075 18.1818 12.9091 18.1818H5.27273C2.36364 18.1818 0 15.8182 0 12.9091V5.27273C0 3.87431 0.555518 2.53317 1.54435 1.54435C2.53317 0.555518 3.87431 0 5.27273 0ZM5.09091 1.81818C4.22293 1.81818 3.3905 2.16299 2.77674 2.77674C2.16299 3.3905 1.81818 4.22293 1.81818 5.09091V13.0909C1.81818 14.9 3.28182 16.3636 5.09091 16.3636H13.0909C13.9589 16.3636 14.7913 16.0188 15.4051 15.4051C16.0188 14.7913 16.3636 13.9589 16.3636 13.0909V5.09091C16.3636 3.28182 14.9 1.81818 13.0909 1.81818H5.09091ZM13.8636 3.18182C14.165 3.18182 14.4541 3.30154 14.6672 3.51465C14.8803 3.72776 15 4.0168 15 4.31818C15 4.61956 14.8803 4.9086 14.6672 5.12171C14.4541 5.33482 14.165 5.45455 13.8636 5.45455C13.5623 5.45455 13.2732 5.33482 13.0601 5.12171C12.847 4.9086 12.7273 4.61956 12.7273 4.31818C12.7273 4.0168 12.847 3.72776 13.0601 3.51465C13.2732 3.30154 13.5623 3.18182 13.8636 3.18182ZM9.09091 4.54545C10.2964 4.54545 11.4526 5.02435 12.305 5.87679C13.1575 6.72923 13.6364 7.88538 13.6364 9.09091C13.6364 10.2964 13.1575 11.4526 12.305 12.305C11.4526 13.1575 10.2964 13.6364 9.09091 13.6364C7.88538 13.6364 6.72923 13.1575 5.87679 12.305C5.02435 11.4526 4.54545 10.2964 4.54545 9.09091C4.54545 7.88538 5.02435 6.72923 5.87679 5.87679C6.72923 5.02435 7.88538 4.54545 9.09091 4.54545ZM9.09091 6.36364C8.36759 6.36364 7.6739 6.65097 7.16244 7.16244C6.65097 7.6739 6.36364 8.36759 6.36364 9.09091C6.36364 9.81423 6.65097 10.5079 7.16244 11.0194C7.6739 11.5308 8.36759 11.8182 9.09091 11.8182C9.81423 11.8182 10.5079 11.5308 11.0194 11.0194C11.5308 10.5079 11.8182 9.81423 11.8182 9.09091C11.8182 8.36759 11.5308 7.6739 11.0194 7.16244C10.5079 6.65097 9.81423 6.36364 9.09091 6.36364Z" fill="white"/>
</svg>
