<svg width="14" height="17" viewBox="0 0 14 17" fill="none" xmlns="http://www.w3.org/2000/svg">
<path fill-rule="evenodd" clip-rule="evenodd" d="M6.8725 15.8075C7.83093 14.9378 8.71795 13.9926 9.525 12.9808C11.225 10.845 12.2592 8.73917 12.3292 6.86667C12.3569 6.10566 12.2309 5.34688 11.9588 4.63565C11.6867 3.92442 11.274 3.27533 10.7454 2.72716C10.2168 2.17898 9.58318 1.74297 8.88232 1.44517C8.18145 1.14737 7.42776 0.993879 6.66625 0.993879C5.90474 0.993879 5.15105 1.14737 4.45018 1.44517C3.74932 1.74297 3.11567 2.17898 2.58709 2.72716C2.0585 3.27533 1.64583 3.92442 1.37372 4.63565C1.1016 5.34688 0.975634 6.10566 1.00333 6.86667C1.07417 8.73917 2.10917 10.845 3.80833 12.9808C4.61539 13.9926 5.50241 14.9378 6.46083 15.8075C6.55306 15.8908 6.62167 15.9514 6.66667 15.9892L6.8725 15.8075ZM6.05167 16.7783C6.05167 16.7783 0 11.6817 0 6.66667C0 4.89856 0.702379 3.20286 1.95262 1.95262C3.20286 0.702379 4.89856 0 6.66667 0C8.43478 0 10.1305 0.702379 11.3807 1.95262C12.631 3.20286 13.3333 4.89856 13.3333 6.66667C13.3333 11.6817 7.28167 16.7783 7.28167 16.7783C6.945 17.0883 6.39083 17.085 6.05167 16.7783ZM6.66667 9C7.2855 9 7.879 8.75417 8.31658 8.31658C8.75417 7.879 9 7.28551 9 6.66667C9 6.04783 8.75417 5.45434 8.31658 5.01675C7.879 4.57917 7.2855 4.33333 6.66667 4.33333C6.04783 4.33333 5.45434 4.57917 5.01675 5.01675C4.57917 5.45434 4.33333 6.04783 4.33333 6.66667C4.33333 7.28551 4.57917 7.879 5.01675 8.31658C5.45434 8.75417 6.04783 9 6.66667 9ZM6.66667 10C5.78261 10 4.93476 9.64881 4.30964 9.02369C3.68452 8.39857 3.33333 7.55072 3.33333 6.66667C3.33333 5.78261 3.68452 4.93477 4.30964 4.30964C4.93476 3.68452 5.78261 3.33333 6.66667 3.33333C7.55072 3.33333 8.39857 3.68452 9.02369 4.30964C9.64881 4.93477 10 5.78261 10 6.66667C10 7.55072 9.64881 8.39857 9.02369 9.02369C8.39857 9.64881 7.55072 10 6.66667 10Z" fill="#007573"/>
</svg>
