<svg width="17" height="16" viewBox="0 0 17 16" fill="none" xmlns="http://www.w3.org/2000/svg">
<path d="M11.1503 10.5337L11.5303 10.1562L10.6478 9.26956L10.2695 9.64706L11.1503 10.5337ZM12.8045 9.99789L14.397 10.8637L14.9928 9.76539L13.4011 8.90039L12.8045 9.99789ZM14.7028 12.5837L13.5195 13.7612L14.4003 14.6471L15.5836 13.4704L14.7028 12.5837ZM12.7978 14.1396C11.5895 14.2529 8.46445 14.1521 5.07945 10.7871L4.19779 11.6729C7.89112 15.3454 11.407 15.5254 12.9145 15.3846L12.7978 14.1396ZM5.07945 10.7871C1.85362 7.57873 1.31862 4.88123 1.25195 3.71039L0.00362108 3.78123C0.0869544 5.25456 0.749455 8.24456 4.19779 11.6729L5.07945 10.7871ZM6.22529 5.63706L6.46445 5.39873L5.58445 4.51289L5.34529 4.75039L6.22529 5.63706ZM6.65445 2.36956L5.60445 0.966226L4.60362 1.71623L5.65362 3.11873L6.65445 2.36956ZM2.07029 0.660393L0.761954 1.96039L1.64362 2.84706L2.95112 1.54706L2.07029 0.660393ZM5.78529 5.19373C5.34362 4.75039 5.34362 4.75039 5.34362 4.75206H5.34195L5.33945 4.75539C5.29985 4.79532 5.26439 4.83916 5.23362 4.88623C5.18862 4.95289 5.13945 5.04039 5.09779 5.15123C4.99635 5.43733 4.97108 5.7449 5.02445 6.04373C5.13612 6.76456 5.63279 7.71706 6.90445 8.98206L7.78612 8.09539C6.59529 6.91206 6.31195 6.19206 6.25945 5.85206C6.23445 5.69039 6.26029 5.61039 6.26779 5.59206C6.27279 5.58095 6.27279 5.57928 6.26779 5.58706C6.26036 5.59856 6.252 5.60943 6.24279 5.61956L6.23445 5.62789L6.22612 5.63539L5.78529 5.19373ZM6.90445 8.98206C8.17695 10.2471 9.13445 10.7404 9.85612 10.8504C10.2253 10.9071 10.5228 10.8621 10.7486 10.7779C10.8751 10.7316 10.9933 10.6652 11.0986 10.5812L11.1403 10.5437L11.1461 10.5387L11.1486 10.5362L11.1495 10.5346C11.1495 10.5346 11.1503 10.5337 10.7095 10.0904C10.2678 9.64706 10.2703 9.64623 10.2703 9.64623L10.272 9.64456L10.2736 9.64289L10.2786 9.63873L10.287 9.63039L10.3186 9.60539C10.3264 9.60039 10.3245 9.60095 10.3128 9.60706C10.292 9.61456 10.2103 9.64039 10.0461 9.61539C9.70112 9.56206 8.97612 9.27873 7.78612 8.09539L6.90445 8.98206ZM5.60445 0.965393C4.75445 -0.16794 3.08445 -0.34794 2.07029 0.660393L2.95112 1.54706C3.39445 1.10623 4.18112 1.15206 4.60362 1.71623L5.60445 0.965393ZM1.25279 3.71123C1.23612 3.42289 1.36862 3.12123 1.64362 2.84789L0.761121 1.96123C0.313621 2.40623 -0.0388789 3.03623 0.00362108 3.78123L1.25279 3.71123ZM13.5195 13.7612C13.2911 13.9896 13.0445 14.1179 12.7986 14.1404L12.9145 15.3846C13.527 15.3271 14.0278 15.0187 14.4011 14.6479L13.5195 13.7612ZM6.46445 5.39873C7.28529 4.58289 7.34612 3.29373 6.65529 2.37039L5.65445 3.11956C5.99029 3.56873 5.94029 4.15789 5.58362 4.51373L6.46445 5.39873ZM14.3978 10.8646C15.0786 11.2346 15.1845 12.1062 14.7036 12.5846L15.5853 13.4704C16.702 12.3596 16.3578 10.5071 14.9936 9.76623L14.3978 10.8646ZM11.5303 10.1571C11.8503 9.83873 12.3653 9.76039 12.8053 9.99873L13.402 8.90123C12.4986 8.40956 11.3786 8.54539 10.6486 9.27039L11.5303 10.1571Z" fill="#007573"/>
</svg>
