<svg width="24" height="24" viewBox="0 0 24 24" fill="none" xmlns="http://www.w3.org/2000/svg">
<circle cx="12" cy="12" r="12" fill="#007573"/>
<g clip-path="url(#clip0_972_2009)">
<path d="M19.0666 4.92663C18.1388 3.99697 17.0364 3.25973 15.8229 2.7572C14.6093 2.25468 13.3085 1.99678 11.995 1.9983C6.47164 1.9983 1.99414 6.4758 1.99414 11.9991C1.99414 14.7608 3.11414 17.2616 4.92414 19.0716C5.85203 20.0013 6.95438 20.7385 8.16793 21.2411C9.38148 21.7436 10.6823 22.0015 11.9958 22C17.5191 22 21.9966 17.5225 21.9966 11.9991C21.9966 9.23746 20.8766 6.73663 19.0666 4.92663ZM17.7816 17.7825C17.0224 18.543 16.1204 19.1462 15.1276 19.5574C14.1347 19.9687 13.0705 20.18 11.9958 20.1791C7.47664 20.1791 3.81331 16.5158 3.81331 11.9966C3.81246 10.922 4.02373 9.85771 4.435 8.86485C4.84627 7.872 5.44945 6.97008 6.20997 6.2108C6.96916 5.45038 7.87094 4.84725 8.86364 4.43598C9.85635 4.02472 10.9205 3.8134 11.995 3.81413C16.5133 3.81413 20.1766 7.47747 20.1766 11.9958C20.1774 13.0703 19.9661 14.1344 19.5548 15.1271C19.1435 16.1198 18.5404 17.0216 17.78 17.7808L17.7816 17.7825Z" fill="white"/>
<path d="M12.9008 12.9395L17.4425 13.054C17.6768 13.0498 17.9005 12.9553 18.0669 12.7901C18.2332 12.6249 18.3293 12.4019 18.3351 12.1676C18.341 11.9332 18.2561 11.7057 18.0981 11.5325C17.9402 11.3592 17.7215 11.2537 17.4876 11.2379L17.4888 11.2379L12.9471 11.1235L13.0615 6.58174C13.0574 6.34738 12.9628 6.12368 12.7976 5.95735C12.6325 5.79102 12.4095 5.69491 12.1751 5.68908C11.9408 5.68325 11.7133 5.76816 11.54 5.92607C11.3668 6.08398 11.2612 6.3027 11.2454 6.53657L11.2455 6.5354L11.131 11.0771L6.5893 10.9627C6.46692 10.9543 6.34412 10.9708 6.22828 11.0112C6.11245 11.0515 6.00597 11.1149 5.91527 11.1974C5.82456 11.28 5.75151 11.3801 5.7005 11.4916C5.64949 11.6032 5.62158 11.7239 5.61845 11.8465C5.61532 11.9692 5.63704 12.0911 5.68229 12.2052C5.72754 12.3192 5.7954 12.4228 5.88177 12.5099C5.96815 12.597 6.07125 12.6657 6.18488 12.7119C6.29851 12.7581 6.42031 12.7809 6.54295 12.7788L6.54413 12.7788L11.0858 12.8932L10.9714 17.4349C10.9631 17.5573 10.9795 17.6801 11.0199 17.796C11.0602 17.9118 11.1236 18.0183 11.2062 18.109C11.2888 18.1997 11.3888 18.2727 11.5004 18.3237C11.6119 18.3748 11.7327 18.4027 11.8553 18.4058C11.9779 18.4089 12.0999 18.3872 12.2139 18.342C12.3279 18.2967 12.4316 18.2288 12.5187 18.1425C12.6058 18.0561 12.6745 17.953 12.7207 17.8394C12.7669 17.7257 12.7896 17.6039 12.7875 17.4813L12.7875 17.4801L12.9008 12.9395Z" fill="white"/>
</g>
<defs>
<clipPath id="clip0_972_2009">
<rect width="20" height="20" fill="white" transform="translate(2 2)"/>
</clipPath>
</defs>
</svg>
