<svg width="32" height="32" viewBox="0 0 32 32" fill="none" xmlns="http://www.w3.org/2000/svg">
<path d="M7.91667 0C3.16667 0 0 4.75 0 9.5C0 12.8408 1.58333 17.4167 3.16667 19C4.75 20.5833 6.33333 31.6667 9.5 31.6667C16.6883 31.6667 12.6667 20.5833 15.8333 20.5833C19 20.5833 14.9783 31.6667 22.1667 31.6667C25.3333 31.6667 26.9167 20.5833 28.5 19C30.0833 17.4167 31.6667 12.8408 31.6667 9.5C31.6667 4.75 28.5 0 23.75 0C19 0 19 1.58333 15.8333 1.58333C12.6667 1.58333 12.6667 0 7.91667 0ZM7.91667 3.16667C11.0833 3.16667 12.6667 4.75 15.8333 4.75C19 4.75 20.5833 3.16667 23.75 3.16667C26.3942 3.16667 28.5 6.33333 28.5 9.5C28.5 12.2708 27.1383 16.0075 25.6342 17.5117C24.2725 18.8733 22.2617 28.405 21.375 28.405C21.0425 28.405 20.5833 26.7267 20.5833 24.6842C20.5833 21.4542 19.6808 17.4167 15.8333 17.4167C11.9858 17.4167 11.0833 21.4542 11.0833 24.6842C11.0833 26.7267 10.6242 28.405 10.2917 28.405C9.405 28.405 7.39417 18.8733 6.0325 17.5117C4.52833 16.0075 3.16667 12.2708 3.16667 9.5C3.16667 6.33333 5.2725 3.16667 7.91667 3.16667Z" fill="#475C6F"/>
</svg>
